<svg width="72" height="42" viewBox="0 0 72 42" fill="none" xmlns="http://www.w3.org/2000/svg">
<g clip-path="url(#clip0_1431_18376)">
<path d="M28.2887 7.99899C27.8299 5.7879 25.5361 4.27505 24.6186 4.62417C26.1096 2.41309 23.357 -0.845362 20.9485 0.201996C21.3155 2.15706 21.1014 3.96472 20.9485 4.62417C20.0692 4.70175 17.9207 5.39223 16.3609 7.5335C14.2965 5.20604 11.5439 6.13702 10.6264 7.06801C9.70882 7.99899 8.90599 11.0247 11.3145 13.003C13.2413 14.5857 14.9464 14.0504 15.558 13.5849C15.2904 14.2831 14.7782 16.1218 14.8699 17.8907C12.4614 18.3562 6.72687 25.3386 8.67661 31.0409C7.30032 29.2953 3.17146 23.3602 8.67661 14.3995C6.03872 14.865 4.08898 17.8907 3.63022 19.0544V17.1925C2.7127 18.1235 1.17584 20.6837 2.36862 23.4766C1.72636 22.918 1.25994 22.3129 1.10703 22.0801C0.801182 23.9421 0.969395 28.1083 4.08898 29.8771C3.0797 29.8771 2.29216 29.722 2.02455 29.6444C2.44508 30.8081 4.36424 32.996 8.67661 32.4374C9.47944 35.4631 12.0026 37.9069 14.6405 38.1396C14.1818 39.0706 14.7552 39.4198 16.4756 39.8852C18.1959 40.3507 21.4073 42.2127 21.866 41.98C22.3248 41.7472 22.2101 40.5835 21.4073 40.2344C22.3248 40.2344 22.3248 41.049 22.6689 40.8162C23.0129 40.5835 22.7836 39.4198 22.0954 38.9543C21.592 38.6137 21.0502 38.5716 20.7858 38.5966C21.4773 38.5017 23.0837 38.1093 24.5039 37.2087C25.3068 37.9069 25.9949 38.6051 26.4537 38.1396C26.9124 37.6742 26.7977 36.8595 26.4537 36.7432C26.9124 36.7432 27.0271 37.4414 27.4859 37.2087C27.9446 36.9759 27.6006 36.0449 26.9124 35.6958C28.174 35.1139 31.8441 29.6444 31.8441 25.2222C32.0735 26.2696 32.8763 26.6187 33.2204 25.9205C33.4084 25.539 33.3931 25.172 33.328 24.9158C33.5023 25.329 33.7603 25.797 33.9086 25.5713C34.1379 25.2222 34.7114 23.3603 32.4176 22.0801C33.4268 20.6837 33.6791 18.9381 33.6791 18.2398C34.3673 18.395 35.7894 18.4493 35.973 17.4252C36.1565 16.4011 35.3613 16.3003 34.9407 16.3779C35.2466 16.2615 35.8353 15.8891 35.7436 15.3305C35.6289 14.6323 34.0503 14.8958 33.4768 16.1759C33.2881 15.5552 32.4471 13.7013 31.6184 13.2358C32.6019 11.1395 30.0645 7.71449 28.2887 7.99899Z" fill="#0A0F25"/>
<circle r="1" transform="matrix(-1 0 0 1 23 11)" fill="white"/>
<path d="M31.5286 6.56767C28.8398 5.02707 24.5378 4 24 4C26.151 8.27947 30.6682 16.4276 31.5286 14.7843C32.6041 12.7301 34.2173 8.10826 31.5286 6.56767Z" fill="#0A0F25"/>
<path d="M43.7113 7.99899C44.1701 5.7879 46.4639 4.27505 47.3814 4.62417C45.8904 2.41309 48.643 -0.845362 51.0515 0.201996C50.6845 2.15706 50.8986 3.96472 51.0515 4.62417C51.9308 4.70175 54.0793 5.39223 55.6391 7.5335C57.7035 5.20604 60.4561 6.13702 61.3736 7.06801C62.2912 7.99899 63.094 11.0247 60.6855 13.003C58.7587 14.5857 57.0536 14.0504 56.442 13.5849C56.7096 14.2831 57.2218 16.1218 57.1301 17.8907C59.5386 18.3562 65.2731 25.3386 63.3234 31.0409C64.6997 29.2953 68.8285 23.3602 63.3234 14.3995C65.9613 14.865 67.911 17.8907 68.3698 19.0544V17.1925C69.2873 18.1235 70.8242 20.6837 69.6314 23.4766C70.2736 22.918 70.7401 22.3129 70.893 22.0801C71.1988 23.9421 71.0306 28.1083 67.911 29.8771C68.9203 29.8771 69.7078 29.722 69.9754 29.6444C69.5549 30.8081 67.6358 32.996 63.3234 32.4374C62.5206 35.4631 59.9974 37.9069 57.3595 38.1396C57.8182 39.0706 57.2448 39.4198 55.5244 39.8852C53.8041 40.3507 50.5927 42.2127 50.134 41.98C49.6752 41.7472 49.7899 40.5835 50.5927 40.2344C49.6752 40.2344 49.6752 41.049 49.3311 40.8162C48.9871 40.5835 49.2164 39.4198 49.9046 38.9543C50.408 38.6137 50.9498 38.5716 51.2142 38.5966C50.5227 38.5017 48.9163 38.1093 47.4961 37.2087C46.6932 37.9069 46.0051 38.6051 45.5463 38.1396C45.0876 37.6742 45.2023 36.8595 45.5463 36.7432C45.0876 36.7432 44.9729 37.4414 44.5141 37.2087C44.0554 36.9759 44.3994 36.0449 45.0876 35.6958C43.826 35.1139 40.1559 29.6444 40.1559 25.2222C39.9265 26.2696 39.1237 26.6187 38.7796 25.9205C38.5916 25.539 38.6069 25.172 38.672 24.9158C38.4977 25.329 38.2397 25.797 38.0914 25.5713C37.8621 25.2222 37.2886 23.3603 39.5824 22.0801C38.5732 20.6837 38.3209 18.9381 38.3209 18.2398C37.6327 18.395 36.2106 18.4493 36.027 17.4252C35.8435 16.4011 36.6387 16.3003 37.0593 16.3779C36.7534 16.2615 36.1647 15.8891 36.2564 15.3305C36.3711 14.6323 37.9497 14.8958 38.5232 16.1759C38.7119 15.5552 39.5529 13.7013 40.3816 13.2358C39.3981 11.1395 41.9355 7.71449 43.7113 7.99899Z" fill="#0A0F25"/>
<circle cx="49" cy="11" r="1" fill="white"/>
<path d="M40.4714 6.56767C43.1602 5.02707 47.4622 4 48 4C45.849 8.27947 41.3318 16.4276 40.4714 14.7843C39.3959 12.7301 37.7827 8.10826 40.4714 6.56767Z" fill="#0A0F25"/>
</g>
<defs>
<clipPath id="clip0_1431_18376">
<rect width="71" height="42" fill="white" transform="translate(0.5)"/>
</clipPath>
</defs>
</svg>
